<?xml version="1.0" encoding="UTF-8"?>
<svg id="Layer_1" data-name="Layer 1" xmlns="http://www.w3.org/2000/svg" xmlns:xlink="http://www.w3.org/1999/xlink" viewBox="0 0 100 100">
  <defs>
    <style>
      .cls-1 {
        fill: url(#linear-gradient);
      }
    </style>
    <linearGradient id="linear-gradient" x1="12.22" y1="50" x2="87.78" y2="50" gradientUnits="userSpaceOnUse">
      <stop offset="0" stop-color="#c8a558"/>
      <stop offset=".11" stop-color="#fff5ca"/>
      <stop offset=".15" stop-color="#faf1be"/>
      <stop offset=".2" stop-color="#f4ebac"/>
      <stop offset=".23" stop-color="#f0e5a6"/>
      <stop offset=".65" stop-color="#c8a563"/>
      <stop offset=".78" stop-color="#f4ebac"/>
      <stop offset=".83" stop-color="#fff5ca"/>
      <stop offset=".86" stop-color="#f9ecbe"/>
      <stop offset=".91" stop-color="#ead69e"/>
      <stop offset=".98" stop-color="#d1b36b"/>
      <stop offset="1" stop-color="#c8a558"/>
    </linearGradient>
  </defs>
  <rect y="0" width="100" height="100"/>
  <path class="cls-1" d="M12.22,5h30.74v1.6c-2.96,0-5.12,.39-6.48,1.17-1.36,.78-2.04,2.61-2.04,5.49V86.85c0,1.48,.27,2.65,.8,3.52,.53,.86,1.44,1.52,2.72,1.97,1.28,.45,2.98,.74,5.12,.86,2.14,.12,4.77,.19,7.9,.19,5.27,0,9.79-.88,13.58-2.65,3.78-1.77,7.04-4.18,9.75-7.22,2.72-3.04,5.02-6.62,6.91-10.74,1.89-4.11,3.54-8.52,4.94-13.21h1.6l-8.77,35.43H12.22v-1.6c1.4,0,2.59-.02,3.58-.06,.99-.04,1.83-.23,2.53-.56,.7-.33,1.25-.86,1.67-1.6,.41-.74,.66-1.77,.74-3.09V13.27c0-2.88-.68-4.71-2.04-5.49-1.36-.78-3.52-1.17-6.48-1.17v-1.6Z"/>
</svg>