<?xml version="1.0" encoding="UTF-8"?>
<svg id="Layer_1" data-name="Layer 1" xmlns="http://www.w3.org/2000/svg" xmlns:xlink="http://www.w3.org/1999/xlink" viewBox="0 0 100 100">
  <defs>
    <style>
      .cls-1 {
        fill: url(#linear-gradient);
      }

      .cls-1, .cls-2, .cls-3 {
        stroke-width: 0px;
      }

      .cls-4 {
        stroke: #e8d454;
        stroke-linejoin: round;
        stroke-width: .6px;
      }

      .cls-4, .cls-2 {
        fill: none;
      }

      .cls-2 {
        clip-rule: evenodd;
      }

      .cls-5 {
        clip-path: url(#clippath);
      }

      .cls-3 {
        fill: #231f20;
      }
    </style>
    <clipPath id="clippath">
      <path class="cls-2" d="M52.69,53.75c.03,2.73.06,3.56.11,5.08.09,2.62,1.24,4.16,3.47,4.61,0,.03-.04.04-.12.04-3.26-.11-6.79-.11-10.59,0-.05,0-.1-.01-.13-.04,2.14-.4,3.25-1.94,3.33-4.61.09-2.69.15-5.11.19-9.39,1.25,1.43,2.49,2.87,3.73,4.31M72.93,18.27c-.36.84-.91,3.37-1.66,7.61-.03.17-.06.25-.12.23.11-3.28-1.78-4.92-5.67-4.92h-12.63c-.11,4.67-.18,10.05-.19,16.73-1.22-1.38-2.43-2.75-3.64-4.14,0-5.62-.05-9.36-.14-12.59h-13.36c-2.91,0-4.96,1.62-6.14,4.88-.06-.1-.08-.23-.04-.4.42-2.08.88-4.55,1.36-7.4.47.61,1.81.92,4.02.92h33.64c2.37,0,3.9-.31,4.58-.92ZM67.6,24.29c-.98.2-1.74.76-2.29,1.69-.55.93-.84,2.06-.87,3.36-.26,12.34-.32,26.4-.17,33.17-7.8-9.15-15.7-18.84-23.69-26.84-.11,4.1-.06,4.71.08,13.07.02,1.35.3,2.48.85,3.43.58,1.01,1.35,1.62,2.36,1.82,0,0-.01,0-.04,0-.42-.05-1.78-.07-4.1-.08-2.53-.01-4.15.01-4.89.08-.13.01-.2,0-.2,0,2.07-.46,3.12-2.15,3.18-5.09.19-8.64.18-12.58-.04-23.06,7.77,8.72,15.86,18.28,23.9,26.75.08-5.95.07-16.65-.04-23.08-.02-1.37-.32-2.54-.89-3.51-.56-.97-1.36-1.54-2.38-1.71,0-.03.03-.04.08-.04.43.04,1.8.06,4.12.08,2.49.01,4.09-.01,4.82-.08.13-.01.2,0,.2.04ZM51.12,81.93l41.72-49.04-17.21-21.34-51.28,3.37-12.71,17.98,39.47,49.04ZM51.12,90.39L5,33.1,21.62,9.6h59.02l14.37,23.49-43.88,57.3Z"/>
    </clipPath>
    <linearGradient id="linear-gradient" x1="116.98" y1="91.95" x2="-15.58" y2="8.91" gradientUnits="userSpaceOnUse">
      <stop offset="0" stop-color="#ba8532"/>
      <stop offset=".34" stop-color="#e8d454"/>
      <stop offset=".5" stop-color="#ba8532"/>
      <stop offset=".67" stop-color="#e8d454"/>
      <stop offset=".86" stop-color="#ba8532"/>
      <stop offset="1" stop-color="#e8d454"/>
    </linearGradient>
  </defs>
  <rect class="cls-3" width="100" height="100"/>
  <g>
    <path class="cls-4" d="M52.69,53.76c.03,2.73.06,3.56.11,5.08.09,2.62,1.24,4.16,3.47,4.61,0,.03-.04.04-.12.04-3.26-.11-6.79-.11-10.59,0-.06,0-.1-.01-.13-.04,2.14-.4,3.25-1.94,3.33-4.61.09-2.69.15-5.11.19-9.39,1.25,1.43,2.49,2.87,3.73,4.31ZM72.93,18.27c-.36.84-.91,3.37-1.66,7.61-.03.18-.06.25-.12.23.11-3.28-1.78-4.92-5.67-4.92h-12.63c-.11,4.67-.18,10.05-.19,16.73-1.22-1.38-2.43-2.75-3.64-4.14,0-5.62-.05-9.36-.14-12.59h-13.36c-2.91,0-4.96,1.62-6.14,4.88-.06-.1-.08-.23-.04-.4.42-2.08.88-4.55,1.36-7.4.47.61,1.81.92,4.02.92h33.64c2.37,0,3.9-.31,4.58-.92ZM67.6,24.3c-.98.2-1.74.76-2.29,1.69-.55.93-.84,2.06-.87,3.36-.26,12.34-.32,26.4-.17,33.17-7.8-9.14-15.7-18.84-23.68-26.84-.11,4.1-.06,4.71.08,13.07.02,1.35.3,2.48.85,3.43.58,1.01,1.35,1.62,2.36,1.82,0,0-.02,0-.04,0-.42-.05-1.78-.07-4.1-.08-2.53-.01-4.15.01-4.89.08-.13.01-.2,0-.2,0,2.07-.46,3.12-2.15,3.18-5.09.19-8.64.18-12.58-.04-23.06,7.77,8.72,15.86,18.28,23.9,26.75.08-5.95.07-16.65-.04-23.09-.02-1.37-.32-2.54-.89-3.51-.56-.97-1.36-1.54-2.38-1.71,0-.03.03-.04.08-.04.43.04,1.8.06,4.12.08,2.49.01,4.09-.01,4.82-.08.13-.01.2,0,.2.04ZM51.12,81.93l41.72-49.04-17.21-21.34-51.27,3.37-12.71,17.98,39.47,49.04ZM51.12,90.4L5,33.1,21.61,9.61h59.02l14.37,23.49-43.88,57.3Z"/>
    <g class="cls-5">
      <rect class="cls-1" x="5" y="9.6" width="90" height="80.79"/>
    </g>
  </g>
</svg>